<svg width="141" height="58" viewBox="0 0 141 58" fill="none" xmlns="http://www.w3.org/2000/svg">
<rect width="140.12" height="57.9445" rx="9.48182" fill="#CD2D26"/>
<path d="M43.5653 53.7995H40.9371L38.1138 41.1565H40.8837L42.2512 50.0887L43.6361 41.1565H46.4061L43.5653 53.7995Z" fill="white"/>
<path d="M47.4541 53.7995V41.1565H49.9756V53.7995H47.4541Z" fill="white"/>
<path d="M57.6992 53.036C57.06 53.6397 56.2964 53.9415 55.2489 53.9415C53.8283 53.9415 53.0824 53.3734 52.4964 52.6809C51.4843 51.4734 51.5553 49.201 51.5553 47.4958C51.5553 45.7907 51.4843 43.4827 52.4964 42.2752C53.0824 41.5829 53.828 41.0145 55.2489 41.0145C56.2964 41.0145 57.06 41.316 57.6992 41.9202C58.3564 42.5417 58.7647 43.5361 58.8173 44.7435H56.2964C56.2788 44.3883 56.2431 44.0332 56.1011 43.7669C55.959 43.4654 55.7104 43.2875 55.2489 43.2875C54.7873 43.2875 54.5564 43.5011 54.4143 43.7846C54.1128 44.3707 54.0769 45.9511 54.0769 47.4781C54.0769 49.0051 54.1123 50.5855 54.4143 51.1716C54.5564 51.4556 54.7872 51.6687 55.2489 51.6687C55.7106 51.6687 55.9766 51.4734 56.119 51.1716C56.2609 50.9051 56.2964 50.5501 56.3142 50.1949H58.8357C58.7825 51.4025 58.3564 52.4147 57.6992 53.036Z" fill="white"/>
<path d="M64.962 53.7995V48.5079H62.8668V53.7995H60.3452V41.1565H62.8668V46.235H64.962V41.1565H67.4835V53.7995H64.962Z" fill="white"/>
<path d="M73.5388 49.0405V53.7995H71.0173V49.0405L68.4419 41.1565H71.212L72.2775 45.7379L73.3429 41.1565H76.1129L73.5388 49.0405Z" fill="white"/>
<path d="M85.9964 46.6342C85.3849 46.6342 85.0636 46.3894 84.8114 46.0915C84.3757 45.5716 84.4062 44.5854 84.4062 43.8515C84.4062 43.1176 84.3757 42.1314 84.8114 41.6116C85.0636 41.3134 85.3849 41.0688 85.9964 41.0688C86.455 41.0688 86.8143 41.2219 87.0743 41.4739C87.3648 41.7645 87.5175 42.1927 87.5405 42.6896H86.4547C86.4471 42.4601 86.409 42.0474 85.9962 42.0474C85.7973 42.0474 85.6981 42.1391 85.6369 42.2609C85.5069 42.5132 85.4915 43.1935 85.4915 43.851C85.4915 44.5085 85.5069 45.1888 85.6369 45.4411C85.6981 45.5634 85.7973 45.6547 85.9962 45.6547C86.3555 45.6547 86.4547 45.3183 86.4547 45.0201V44.4548H86.0038V43.5754H87.5403V44.9592C87.5405 46.0455 86.9292 46.6342 85.9964 46.6342Z" fill="white"/>
<path d="M90.2696 46.5731L89.6045 44.4554H89.2452V46.5731H88.1597V41.1299H89.7117C90.8965 41.1299 91.2252 41.7491 91.2252 42.7889C91.2252 43.3698 91.1335 43.8898 90.6059 44.2185L91.4011 46.5731H90.2696ZM89.7043 42.1084H89.2455V43.4769H89.7043C90.117 43.4769 90.1399 43.1022 90.1399 42.7889C90.1399 42.4756 90.1167 42.1084 89.704 42.1084H89.7043Z" fill="white"/>
<path d="M94.2983 46.5731L94.1225 45.7245H92.8689L92.6931 46.5731H91.5615L92.9604 41.1299H94.0307L95.4296 46.5731H94.2983ZM93.4956 42.7276L93.0753 44.746H93.916L93.4956 42.7276Z" fill="white"/>
<path d="M98.0594 46.5731L96.9048 43.9128V46.5731H95.8193V41.1299H96.7673L97.8986 43.7904V41.1299H98.9843V46.5731H98.0594Z" fill="white"/>
<path d="M102.477 46.0455C102.233 46.3284 101.896 46.5731 101.285 46.5731H99.748V41.1299H101.285C101.896 41.1299 102.233 41.3746 102.477 41.6575C102.913 42.162 102.882 43.1399 102.882 43.8515C102.882 44.5631 102.913 45.5409 102.477 46.0455ZM101.667 42.3455C101.598 42.2073 101.46 42.1084 101.262 42.1084H100.834V45.5946H101.262C101.46 45.5946 101.598 45.4952 101.667 45.3575C101.797 45.1053 101.797 44.4477 101.797 43.8438C101.797 43.2399 101.797 42.5977 101.667 42.3455Z" fill="white"/>
<path d="M87.0512 53.4966C86.776 53.7565 86.4472 53.886 85.9959 53.886C85.3844 53.886 85.0631 53.6414 84.8109 53.3433C84.3752 52.8234 84.4057 51.8449 84.4057 51.111C84.4057 50.3771 84.3752 49.3832 84.8109 48.8634C85.0631 48.5654 85.3844 48.3207 85.9959 48.3207C86.4468 48.3207 86.7756 48.4507 87.0512 48.7101C87.3341 48.9776 87.5098 49.4057 87.5327 49.9257H86.4472C86.4398 49.7727 86.4245 49.6198 86.3633 49.5051C86.302 49.3751 86.1952 49.2987 85.9963 49.2987C85.7974 49.2987 85.6982 49.3904 85.637 49.5123C85.507 49.7645 85.4917 50.4448 85.4917 51.1023C85.4917 51.7599 85.507 52.4402 85.637 52.6924C85.6982 52.8148 85.7974 52.906 85.9963 52.906C86.1952 52.906 86.3096 52.8219 86.3709 52.6924C86.4321 52.5778 86.4472 52.4248 86.4549 52.2719H87.5404C87.5174 52.7933 87.334 53.2292 87.0512 53.4966Z" fill="white"/>
<path d="M90.4376 53.8255L90.2617 52.9769H89.0082L88.8323 53.8255H87.7007L89.0995 48.3823H90.17L91.5689 53.8255H90.4376ZM89.6347 49.9802L89.2144 51.9984H90.0553L89.6347 49.9802Z" fill="white"/>
<path d="M93.1208 49.361V50.5921H94.3442V51.5704H93.1211V53.8257H92.0356V48.3823H94.5431V49.361H93.1208Z" fill="white"/>
<path d="M95.147 53.8255V48.3823H97.6544V49.361H96.2323V50.5921H97.4555V51.5704H96.2323V52.8471H97.6544V53.8257L95.147 53.8255Z" fill="white"/>
<path d="M80.818 41.1691H79.4346V53.7998H80.818V41.1691Z" fill="white"/>
<path d="M96.6628 48.0384H95.9951L96.4775 47.118H97.2658L96.6628 48.0384Z" fill="white"/>
<path d="M34.0745 34.106C32.5269 35.5676 30.6787 36.2982 28.1428 36.2982C24.7038 36.2982 22.8985 34.9228 21.4801 33.2465C19.0303 30.3235 19.2018 24.8213 19.2018 20.6946C19.2018 16.5678 19.0303 10.9799 21.4801 8.05726C22.8985 6.381 24.7038 5.00525 28.1428 5.00525C30.6787 5.00525 32.5272 5.73603 34.0745 7.19759C35.665 8.70198 36.6537 11.1091 36.7826 14.0318H30.6787C30.6358 13.1725 30.5504 12.3128 30.2058 11.6681C29.8621 10.9373 29.2601 10.5073 28.1428 10.5073C27.0254 10.5073 26.4664 11.0233 26.1223 11.7109C25.3916 13.1294 25.3057 16.9551 25.3057 20.6519C25.3057 24.3486 25.3916 28.174 26.1223 29.5928C26.4664 30.2803 27.0249 30.7961 28.1428 30.7961C29.2606 30.7961 29.9051 30.3235 30.249 29.5928C30.5928 28.9477 30.6787 28.0882 30.7217 27.2286H36.8255C36.6967 30.1514 35.665 32.6017 34.0745 34.106Z" fill="white"/>
<path d="M72.1165 34.0201C70.741 35.3526 68.4197 36.2981 65.4539 36.2981C62.445 36.2981 60.2098 35.4386 58.8341 34.0628C57.3298 32.5585 56.814 30.4092 56.814 27.2712H62.9177C62.9177 28.5181 63.0038 29.4207 63.5625 30.0654C63.9064 30.4523 64.5082 30.796 65.4539 30.796C66.3996 30.796 67.0013 30.5381 67.3886 30.0224C67.8185 29.5065 67.9903 28.6897 67.9903 27.4433C67.9903 24.5202 67.5175 24.0045 65.3254 23.1019L61.4561 21.5113C58.3613 20.2218 57.0716 18.5886 57.0716 13.8171C57.0716 10.9801 57.9743 8.61607 59.8229 7.02562C61.2844 5.77901 63.1327 5.09094 65.4539 5.09094C68.1618 5.09094 70.1398 5.77876 71.4715 7.02562C73.1479 8.57298 73.8357 11.0232 73.8357 14.1182H67.7321C67.7321 13.0435 67.7321 12.0548 67.2161 11.3669C66.8724 10.8942 66.3566 10.5932 65.4539 10.5932C64.594 10.5932 64.0354 10.9372 63.6914 11.4098C63.3045 11.9256 63.1756 12.5701 63.1756 13.6021C63.1756 15.5368 63.5195 16.0952 65.2819 16.8259L69.1076 18.3732C72.976 19.9637 74.0939 21.6832 74.0939 27.2283C74.0939 30.3235 73.7071 32.4729 72.1165 34.0201Z" fill="white"/>
<path d="M75.7695 35.9548V5.34924H81.8734V35.9548H75.7695Z" fill="white"/>
<path d="M97.0471 35.9548L90.5565 20.9956V35.9548H84.4526V5.34924H89.7828L96.1445 20.3078V5.34924H102.248V35.9548H97.0471Z" fill="white"/>
<path d="M119.614 33.2465C118.196 34.9228 116.305 36.2982 112.866 36.2982C109.427 36.2982 107.622 34.9228 106.204 33.2465C103.754 30.3235 103.925 24.7782 103.925 20.6519C103.925 16.5255 103.753 10.9799 106.204 8.05726C107.622 6.381 109.427 5.00525 112.866 5.00525C116.305 5.00525 118.196 6.381 119.614 8.05726C122.064 10.9802 121.893 16.5252 121.893 20.6519C121.893 24.7785 122.065 30.3235 119.614 33.2465ZM114.973 11.7109C114.629 11.0233 113.984 10.5073 112.866 10.5073C111.749 10.5073 111.19 11.0233 110.846 11.7109C110.115 13.1294 110.029 16.9551 110.029 20.6519C110.029 24.3486 110.115 28.174 110.846 29.5928C111.19 30.2803 111.749 30.7961 112.866 30.7961C113.984 30.7961 114.629 30.2803 114.973 29.5928C115.703 28.174 115.789 24.3487 115.789 20.6519C115.789 16.955 115.703 13.1294 114.973 11.7109Z" fill="white"/>
<path d="M49.4633 5.34924H43.4457L35.5791 35.9548H41.9409L42.9296 31.1833H49.979L50.9677 35.9548H57.3295L49.4633 5.34924ZM43.1849 28.1274L42.0971 28.5437V18.4442C42.0343 16.7251 42.9923 15.7358 44.2369 15.5746C43.4713 16.3088 43.1849 16.8812 43.1849 17.6786V28.1274ZM44.9756 28.3064L43.8876 28.7317V18.3368C43.8206 16.5685 44.7786 15.5528 46.0276 15.3867C45.262 16.1387 44.9756 16.7296 44.9756 17.5489V28.3064ZM46.6633 17.2041V28.293L45.5799 28.7312V18.019C45.5125 16.1925 46.4752 15.1448 47.7198 14.9749C46.8693 15.5528 46.6633 16.358 46.6633 17.2041ZM50.7773 20.7049C50.7773 21.4705 49.9447 22.6791 47.9973 22.6479C49.591 21.9495 49.7208 21.0541 49.7522 19.8455V15.9193C49.7522 14.5271 48.7315 14.7778 48.5076 14.7465C49.6537 14.2406 50.7415 15.1136 50.7773 16.1033V20.7049Z" fill="white"/>
</svg>
